<svg id="Calque_1" data-name="Calque 1" xmlns="http://www.w3.org/2000/svg" viewBox="0 0 549.3 136.83"><defs><style>.cls-1,.cls-2{fill:#1ea6d5;}.cls-2{font-size:120px;font-family:OCRAExtended, OCR A Extended;}.cls-3{fill:#333;}</style></defs><title>logo</title><path d="M153.69,118.92a24.1,24.1,0,0,1-12.37-3.63,23.18,23.18,0,0,1-8.94-8.88L120.9,84.21l-.06-.13A32.21,32.21,0,0,1,117.56,70a29.86,29.86,0,0,1,3.36-14.28l11.46-21.68a25.21,25.21,0,0,1,8.37-9,21.87,21.87,0,0,1,12.24-4h19.45a15,15,0,0,1,10.7,25.39A14.71,14.71,0,0,1,172.44,51H157.36l-9.57,17.86a3,3,0,0,0-.09.93,3.37,3.37,0,0,0,.22,1.43l9.28,17.84h14.89a15,15,0,0,1,15,14.92,15,15,0,0,1-15,14.92Z"/><path d="M154.32,99.08h17.77a5,5,0,0,1,3.55,1.44,4.81,4.81,0,0,1,0,7,4.94,4.94,0,0,1-3.54,1.44h-18.4a14.22,14.22,0,0,1-7.27-2.23,13.4,13.4,0,0,1-5.21-5l-11.37-22A22.19,22.19,0,0,1,127.56,70a19.92,19.92,0,0,1,2.17-9.55l11.48-21.74a15.23,15.23,0,0,1,5.1-5.36A12,12,0,0,1,153,31.05h19.45a4.7,4.7,0,0,1,3.49,1.46A4.78,4.78,0,0,1,177.36,36a4.94,4.94,0,0,1-1.43,3.54A4.65,4.65,0,0,1,172.44,41H153.7q-2.34,0-3.81,2.76L139,64.15a11.75,11.75,0,0,0-1.28,5.69,12.71,12.71,0,0,0,1.4,6.1l10.42,20A5,5,0,0,0,154.32,99.08Z"/><path d="M218.5,118.92a25.18,25.18,0,0,1-9-1.74,23.59,23.59,0,0,1-7.19-4.06L198,109.35a24.37,24.37,0,0,1-8.34-17.6V69.2a22.5,22.5,0,0,1,2.39-9.36,23.43,23.43,0,0,1,6.66-8.78l4.09-3.21A24,24,0,0,1,218,42.38h13.83c4.18,0,10.47,1.22,16.68,7l3.66,3.49c3.31,3,7.18,8.57,7.18,18V82.79A14.8,14.8,0,0,1,255,93.32l-.06.06a15,15,0,0,1-10.46,25.54Z"/><path d="M249.37,70.9V82.79a5,5,0,0,1-4.92,4.92h-34.8v2.87a5.33,5.33,0,0,0,2.17,4.28l2.87,2.4a7.4,7.4,0,0,0,4.45,1.82h25.31a4.78,4.78,0,0,1,3.46,1.44,4.81,4.81,0,0,1,0,6.94,4.76,4.76,0,0,1-3.43,1.46h-26a15.18,15.18,0,0,1-5.42-1.08,14.23,14.23,0,0,1-4.19-2.26l-4.39-3.87a12.54,12.54,0,0,1-3.43-4.57,12.8,12.8,0,0,1-1.38-5.39V69.2A13.62,13.62,0,0,1,201.18,64a13.5,13.5,0,0,1,3.78-5.1l4.1-3.22a13.89,13.89,0,0,1,9-3.28h13.83q5.21,0,9.84,4.34l3.69,3.52Q249.37,63.81,249.37,70.9Zm-39.61-.76v7.62h29.88V70.9a5.27,5.27,0,0,0-1.7-4.22l-2.87-2.52a6.65,6.65,0,0,0-4-1.82H218.73a6.3,6.3,0,0,0-4.16,1.58l-2.87,2.4A4.56,4.56,0,0,0,209.77,70.13Z"/><path d="M317,118.92a14.84,14.84,0,0,1-14.92-14.58l-1.28-32L292.13,78v26a14.92,14.92,0,0,1-29.84,0V57.3a15,15,0,0,1,14.92-15A14.7,14.7,0,0,1,287,46a28.66,28.66,0,0,1,14.36-3.7h4.58a24.14,24.14,0,0,1,17.12,7,24.65,24.65,0,0,1,7.54,17l1.35,37.35a14.6,14.6,0,0,1-4.33,10.89A14.87,14.87,0,0,1,317,118.92Z"/><path d="M295.57,63.81l-13.45,8.73V104a4.92,4.92,0,0,1-9.84,0V57.3a4.94,4.94,0,0,1,1.44-3.54,4.78,4.78,0,0,1,6.94,0,4.89,4.89,0,0,1,1.46,3.54v3.28l9-5.45a18.64,18.64,0,0,1,10.21-2.87h4.58A14.08,14.08,0,0,1,316,56.42a14.56,14.56,0,0,1,4.52,10.25L321.91,104a4.53,4.53,0,0,1-1.41,3.46,4.79,4.79,0,0,1-3.52,1.46,4.92,4.92,0,0,1-3.4-1.32,4.78,4.78,0,0,1-1.52-3.6l-1.46-36.74q-.18-5.15-5.4-5.16h-4.81A8.9,8.9,0,0,0,295.57,63.81Z"/><path d="M369.49,118.92A24.47,24.47,0,0,1,352,111.7a24.17,24.17,0,0,1-7.37-17.55V71.41a14.95,14.95,0,0,1,.12-28.23V40.31a14.9,14.9,0,0,1,14.92-14.92,15.05,15.05,0,0,1,14.92,14.92v2.07h9.8a14.92,14.92,0,0,1,0,29.84h-9.92V89.08h1.42a14.95,14.95,0,0,1,24.19-4,14.91,14.91,0,0,1,4.16,10.53c0,5.6-2.33,10.9-6.93,15.75a24.1,24.1,0,0,1-18,7.55Z"/><path d="M379.34,108.92h-9.84A14.41,14.41,0,0,1,359,104.59a14.12,14.12,0,0,1-4.39-10.43V62.22h-5a4.8,4.8,0,0,1-3.49-1.41,4.94,4.94,0,0,1,3.49-8.44h5.16V40.31a4.87,4.87,0,0,1,8.35-3.46,4.68,4.68,0,0,1,1.49,3.46V52.38h19.8a4.92,4.92,0,0,1,0,9.84H364.45V94.16a4.68,4.68,0,0,0,1.49,3.46,4.89,4.89,0,0,0,3.54,1.46h9.61q3.92,0,5.21-4.25t5-4.25A4.7,4.7,0,0,1,392.84,92a5,5,0,0,1,1.38,3.6q0,4.45-4.19,8.88A14.08,14.08,0,0,1,379.34,108.92Z"/><path class="cls-1" d="M435.94,118.92a25.18,25.18,0,0,1-9-1.74,23.57,23.57,0,0,1-7.19-4.06l-4.29-3.77a24.37,24.37,0,0,1-8.35-17.6V69.2a22.5,22.5,0,0,1,2.39-9.36,23.43,23.43,0,0,1,6.66-8.78l4.09-3.21a24,24,0,0,1,15.2-5.46H449.3c4.18,0,10.47,1.22,16.68,7l3.66,3.49c3.31,3,7.18,8.57,7.18,18V82.79a14.81,14.81,0,0,1-4.39,10.53l-.06.06a15,15,0,0,1-10.46,25.54Z"/><path class="cls-1" d="M466.82,70.9V82.79a5,5,0,0,1-4.92,4.92h-34.8v2.87a5.33,5.33,0,0,0,2.17,4.28l2.87,2.4a7.39,7.39,0,0,0,4.45,1.82h25.31a4.78,4.78,0,0,1,3.46,1.44,4.81,4.81,0,0,1,0,6.94,4.76,4.76,0,0,1-3.43,1.46h-26a15.18,15.18,0,0,1-5.42-1.08,14.21,14.21,0,0,1-4.19-2.26l-4.39-3.87a12.52,12.52,0,0,1-3.43-4.57,12.8,12.8,0,0,1-1.38-5.39V69.2A13.62,13.62,0,0,1,418.62,64a13.5,13.5,0,0,1,3.78-5.1l4.1-3.22a13.89,13.89,0,0,1,9-3.28H449.3q5.21,0,9.84,4.34l3.69,3.52Q466.82,63.81,466.82,70.9Zm-39.61-.76v7.62h29.88V70.9a5.27,5.27,0,0,0-1.7-4.22l-2.87-2.52a6.65,6.65,0,0,0-4-1.82H436.17A6.3,6.3,0,0,0,432,63.92l-2.87,2.4A4.56,4.56,0,0,0,427.21,70.13Z"/><path class="cls-1" d="M494.65,118.92A14.9,14.9,0,0,1,479.73,104V57.3a14.91,14.91,0,0,1,25.07-11,23.12,23.12,0,0,1,12.53-3.88h7.21A24.8,24.8,0,0,1,549.3,67.15v2.64a14.92,14.92,0,0,1-29.64,2.57l-10.08,8.73V104a15,15,0,0,1-14.92,14.92Z"/><path class="cls-1" d="M489.73,104V57.3a4.94,4.94,0,0,1,1.44-3.54,4.65,4.65,0,0,1,3.49-1.49,4.7,4.7,0,0,1,3.49,1.46,4.91,4.91,0,0,1,1.44,3.57v6.15l8-6.86q5-4.22,9.73-4.22h7.21A14.8,14.8,0,0,1,539.3,67.15v2.64a4.91,4.91,0,0,1-1.44,3.57,4.91,4.91,0,0,1-8.41-3.46V67.15a4.9,4.9,0,0,0-4.92-4.92h-6.39a7.38,7.38,0,0,0-4.57,2.17l-14,12.13V104a4.7,4.7,0,0,1-1.46,3.49,4.91,4.91,0,0,1-8.38-3.49Z"/><text class="cls-2" transform="translate(113.92 109.85)">Cent<tspan class="cls-3" x="289.92" y="0">er</tspan></text><path d="M131.66,3.51c0,2.9.19,5.47-1.33,8.15-5.25,9.2-9,19.1-12.88,28.95-3.3,8.47-6.47,17-9.67,25.51a3.16,3.16,0,0,0-.14,1.72A460.36,460.36,0,0,0,124,124.3a2.71,2.71,0,0,0,2.05,1.93c1.7.44,3.35,1,5.1,1.56V134c-.37,0-.77.08-1.16.08-9,0-17.94,0-26.91,0-1.06,0-1.39-.38-1.68-1.31A315,315,0,0,1,93,97.52a3.66,3.66,0,0,0-.69-1.65,10.76,10.76,0,0,0-1,1.23c-3.63,6.22-7.08,12.56-10.91,18.65a48.35,48.35,0,0,1-13.85,14.59c-8,5.41-17,7-26.43,6.37a35.78,35.78,0,0,1-22-9A45.31,45.31,0,0,1,6.46,110.52,89.3,89.3,0,0,1,.57,84.26a143.75,143.75,0,0,1,0-25.63C1.83,45.12,5.07,32.22,12.81,20.83,20.81,9.07,32,2.46,46.07.57a60.34,60.34,0,0,1,20.68.71c11,2.33,18.91,8.82,24.56,18.33A89.22,89.22,0,0,1,99,37.08a5.43,5.43,0,0,0,.85,1.23,5.92,5.92,0,0,0,.68-1.22Q105,21,109.48,4.95c.29-1.06.67-1.49,1.85-1.47,6.29.07,12.58,0,18.87,0ZM25.15,70.76a133.19,133.19,0,0,0,1.8,23.88c1.26,7,3.21,13.66,7.18,19.63,2.6,3.91,5.83,7.17,10.52,8.32,6.79,1.66,13,.07,18.56-4.1,6.33-4.75,10.58-11.16,14.18-18.06,5-9.65,8.42-20,12.09-30.18a2.43,2.43,0,0,0,.11-1.08,206.48,206.48,0,0,0-4.73-26.86A67.29,67.29,0,0,0,76.36,22C66.51,7,46.11,8.8,37.4,19.54c-4.51,5.56-7,12-8.79,18.79C25.87,49,25.19,59.83,25.15,70.76Z"/></svg>